<?xml version="1.0" standalone="no"?>
<svg xmlns:xlink="http://www.w3.org/1999/xlink" id="wave" style="transform:rotate(0deg); transition: 0.3s" viewBox="0 0 1440 490" version="1.1" xmlns="http://www.w3.org/2000/svg"><defs><linearGradient id="sw-gradient-0" x1="0" x2="0" y1="1" y2="0"><stop stop-color="rgba(126.251, 243, 62, 1)" offset="0%"/><stop stop-color="rgba(255, 179, 11, 1)" offset="100%"/></linearGradient></defs><path style="transform:translate(0, 0px); opacity:1" fill="url(#sw-gradient-0)" d="M0,196L48,212.3C96,229,192,261,288,245C384,229,480,163,576,171.5C672,180,768,261,864,277.7C960,294,1056,245,1152,196C1248,147,1344,98,1440,106.2C1536,114,1632,180,1728,196C1824,212,1920,180,2016,163.3C2112,147,2208,147,2304,171.5C2400,196,2496,245,2592,269.5C2688,294,2784,294,2880,310.3C2976,327,3072,359,3168,367.5C3264,376,3360,359,3456,326.7C3552,294,3648,245,3744,253.2C3840,261,3936,327,4032,359.3C4128,392,4224,392,4320,383.8C4416,376,4512,359,4608,310.3C4704,261,4800,180,4896,130.7C4992,82,5088,65,5184,57.2C5280,49,5376,49,5472,81.7C5568,114,5664,180,5760,228.7C5856,278,5952,310,6048,277.7C6144,245,6240,147,6336,155.2C6432,163,6528,278,6624,302.2C6720,327,6816,261,6864,228.7L6912,196L6912,490L6864,490C6816,490,6720,490,6624,490C6528,490,6432,490,6336,490C6240,490,6144,490,6048,490C5952,490,5856,490,5760,490C5664,490,5568,490,5472,490C5376,490,5280,490,5184,490C5088,490,4992,490,4896,490C4800,490,4704,490,4608,490C4512,490,4416,490,4320,490C4224,490,4128,490,4032,490C3936,490,3840,490,3744,490C3648,490,3552,490,3456,490C3360,490,3264,490,3168,490C3072,490,2976,490,2880,490C2784,490,2688,490,2592,490C2496,490,2400,490,2304,490C2208,490,2112,490,2016,490C1920,490,1824,490,1728,490C1632,490,1536,490,1440,490C1344,490,1248,490,1152,490C1056,490,960,490,864,490C768,490,672,490,576,490C480,490,384,490,288,490C192,490,96,490,48,490L0,490Z"/></svg>