<?xml version="1.0" standalone="no"?>
<svg xmlns:xlink="http://www.w3.org/1999/xlink" id="wave" style="transform:rotate(0deg); transition: 0.3s" viewBox="0 0 1440 490" version="1.1" xmlns="http://www.w3.org/2000/svg"><defs><linearGradient id="sw-gradient-0" x1="0" x2="0" y1="1" y2="0"><stop stop-color="rgba(62, 230.737, 243, 1)" offset="0%"/><stop stop-color="rgba(11, 255, 139.285, 1)" offset="100%"/></linearGradient></defs><path style="transform:translate(0, 0px); opacity:1" fill="url(#sw-gradient-0)" d="M0,147L48,147C96,147,192,147,288,171.5C384,196,480,245,576,269.5C672,294,768,294,864,253.2C960,212,1056,131,1152,81.7C1248,33,1344,16,1440,81.7C1536,147,1632,294,1728,343C1824,392,1920,343,2016,302.2C2112,261,2208,229,2304,245C2400,261,2496,327,2592,310.3C2688,294,2784,196,2880,138.8C2976,82,3072,65,3168,89.8C3264,114,3360,180,3456,236.8C3552,294,3648,343,3744,334.8C3840,327,3936,261,4032,245C4128,229,4224,261,4320,261.3C4416,261,4512,229,4608,245C4704,261,4800,327,4896,326.7C4992,327,5088,261,5184,236.8C5280,212,5376,229,5472,220.5C5568,212,5664,180,5760,196C5856,212,5952,278,6048,326.7C6144,376,6240,408,6336,383.8C6432,359,6528,278,6624,253.2C6720,229,6816,261,6864,277.7L6912,294L6912,490L6864,490C6816,490,6720,490,6624,490C6528,490,6432,490,6336,490C6240,490,6144,490,6048,490C5952,490,5856,490,5760,490C5664,490,5568,490,5472,490C5376,490,5280,490,5184,490C5088,490,4992,490,4896,490C4800,490,4704,490,4608,490C4512,490,4416,490,4320,490C4224,490,4128,490,4032,490C3936,490,3840,490,3744,490C3648,490,3552,490,3456,490C3360,490,3264,490,3168,490C3072,490,2976,490,2880,490C2784,490,2688,490,2592,490C2496,490,2400,490,2304,490C2208,490,2112,490,2016,490C1920,490,1824,490,1728,490C1632,490,1536,490,1440,490C1344,490,1248,490,1152,490C1056,490,960,490,864,490C768,490,672,490,576,490C480,490,384,490,288,490C192,490,96,490,48,490L0,490Z"/></svg>